<svg xmlns="http://www.w3.org/2000/svg" width="1024" height="1024" viewBox="0 0 1024 1024">
  <defs>
    <linearGradient id="bg" x1="0" y1="0" x2="1" y2="1">
      <stop offset="0" stop-color="#0F172A"/>
      <stop offset="1" stop-color="#111827"/>
    </linearGradient>
    <filter id="shadow" x="-20%" y="-20%" width="140%" height="140%">
      <feDropShadow dx="0" dy="18" stdDeviation="18" flood-color="#000000" flood-opacity="0.35"/>
    </filter>
  </defs>

  <!-- Background with iOS-style rounded corners -->
  <rect x="64" y="64" width="896" height="896" rx="200" fill="url(#bg)"/>

  <!-- Central mark: business card + contacts + OCR magnifier (simplified, bold strokes) -->
  <g filter="url(#shadow)" transform="translate(0,0)">
    <!-- Card -->
    <rect x="210" y="360" width="520" height="320" rx="64" fill="#DBEAFE" stroke="#2563EB" stroke-width="32"/>
    <line x1="300" y1="460" x2="650" y2="460" stroke="#2563EB" stroke-width="32" stroke-linecap="round"/>
    <line x1="300" y1="540" x2="560" y2="540" stroke="#2563EB" stroke-width="32" stroke-linecap="round"/>

    <!-- Contacts book on right -->
    <path d="M680 270h110c44 0 80 36 80 80v360c0 44-36 80-80 80H680" fill="#DCFCE7" stroke="#16A34A" stroke-width="32" stroke-linecap="round" stroke-linejoin="round"/>
    <line x1="770" y1="420" x2="810" y2="420" stroke="#16A34A" stroke-width="32" stroke-linecap="round"/>
    <line x1="770" y1="520" x2="810" y2="520" stroke="#16A34A" stroke-width="32" stroke-linecap="round"/>
    <line x1="770" y1="620" x2="810" y2="620" stroke="#16A34A" stroke-width="32" stroke-linecap="round"/>

    <!-- OCR magnifier -->
    <circle cx="675" cy="665" r="95" fill="none" stroke="#F97316" stroke-width="36"/>
    <line x1="740" y1="730" x2="820" y2="810" stroke="#F97316" stroke-width="36" stroke-linecap="round"/>
  </g>
</svg>
